<?xml version="1.0" standalone="no"?>
<!DOCTYPE svg PUBLIC "-//W3C//DTD SVG 20010904//EN"
 "http://www.w3.org/TR/2001/REC-SVG-20010904/DTD/svg10.dtd">
<svg version="1.0" xmlns="http://www.w3.org/2000/svg"
 width="630.000000pt" height="630.000000pt" viewBox="0 0 630.000000 630.000000"
 preserveAspectRatio="xMidYMid meet">
<metadata>
Created by potrace 1.15, written by Peter Selinger 2001-2017
</metadata>
<g transform="translate(0.000000,630.000000) scale(0.100000,-0.100000)"
fill="#000000" stroke="none">
<path d="M2168 6212 c-59 -37 -185 -114 -279 -172 -95 -58 -231 -142 -303
-187 -115 -72 -133 -80 -147 -67 -22 20 -40 17 -64 -9 -15 -18 -46 -30 -120
-46 -55 -13 -172 -41 -260 -62 -105 -26 -162 -36 -169 -29 -15 15 -53 12 -60
-5 -5 -13 -54 -15 -360 -15 -328 0 -356 1 -365 18 -9 14 -10 11 -11 -18 0 -38
-12 -23 264 -334 34 -37 62 -72 64 -75 5 -13 -148 -142 -165 -139 -11 2 -28
44 -59 153 -63 217 -103 342 -103 323 -1 -16 36 -147 98 -353 27 -89 32 -129
13 -99 -31 49 -106 143 -110 139 -3 -3 23 -41 57 -86 77 -101 77 -114 -3 -152
-32 -15 -56 -30 -54 -33 3 -2 31 7 62 22 32 14 60 23 63 20 4 -3 -24 -90 -62
-194 -84 -229 -80 -219 -68 -207 5 6 41 94 79 198 37 103 71 187 74 187 6 0
130 -408 130 -427 0 -23 -20 -23 -142 2 -123 25 -156 29 -146 20 4 -5 242 -55
261 -55 4 0 7 -6 7 -13 0 -8 -61 -56 -135 -107 -74 -51 -133 -95 -131 -98 3
-2 65 37 138 88 103 72 141 93 169 94 29 1 68 -18 202 -99 99 -59 166 -106
167 -116 0 -37 41 -50 72 -22 16 14 92 22 516 50 739 48 732 48 732 35 0 -7
12 -12 28 -12 21 0 65 -36 210 -171 128 -121 182 -178 182 -193 0 -24 17 -46
36 -46 19 0 46 31 40 46 -7 19 577 514 608 514 27 0 42 15 48 46 5 30 336 333
358 327 10 -3 27 6 41 20 20 21 96 46 433 142 241 68 415 113 425 109 9 -4 27
-8 41 -8 14 -1 107 -55 208 -121 101 -66 209 -136 240 -155 32 -20 58 -44 60
-55 4 -20 28 -45 44 -45 4 0 16 9 26 20 14 15 91 35 358 89 209 43 343 66 349
60 15 -15 55 -10 62 7 3 8 1 26 -5 38 -16 36 64 523 90 553 25 27 20 54 -14
71 -15 7 -30 23 -34 35 -4 12 -20 51 -37 87 -117 256 -147 331 -138 348 13 25
-5 52 -34 52 -13 0 -27 -5 -30 -11 -4 -6 -14 -8 -22 -5 -41 16 -715 187 -724
184 -6 -2 150 -45 348 -96 197 -52 366 -96 376 -98 9 -3 17 -11 17 -19 0 -12
-78 -92 -162 -164 l-37 -32 -221 148 c-320 214 -370 246 -376 241 -2 -3 130
-94 293 -203 l297 -198 -39 -34 c-21 -18 -44 -32 -49 -30 -6 2 -22 0 -35 -5
-19 -7 -110 20 -437 129 -228 76 -414 141 -414 145 0 4 58 54 130 110 71 57
125 105 119 107 -6 2 -14 -1 -18 -6 -13 -20 -251 -203 -264 -203 -25 0 -147
45 -147 54 -1 6 86 42 194 80 107 39 191 72 186 74 -9 3 -164 -47 -215 -69
-94 -40 -163 -59 -197 -54 -30 5 -38 3 -47 -13 -6 -11 -7 -22 -4 -26 4 -4 -78
-92 -182 -196 -153 -153 -195 -190 -217 -190 -21 0 -59 29 -161 123 -359 329
-492 446 -486 431 4 -11 198 -192 297 -278 31 -27 100 -88 152 -136 52 -48
112 -102 133 -120 21 -18 36 -34 34 -37 -2 -2 -78 12 -168 31 -90 19 -285 60
-434 91 -232 49 -272 60 -292 81 -20 22 -23 38 -30 182 -4 86 -8 165 -7 175 0
9 -3 17 -8 17 -4 0 -8 -3 -8 -7 0 -5 5 -84 10 -176 13 -220 28 -203 -204 -226
-97 -9 -179 -15 -181 -12 -3 2 8 27 24 55 67 120 191 366 183 366 -4 0 -27
-37 -50 -82 -108 -212 -170 -330 -178 -338 -8 -7 -518 -57 -759 -75 -38 -3
-88 -8 -110 -11 -52 -8 -44 0 85 78 254 155 666 411 675 419 25 24 -20 2 -117
-59z m2063 -173 c15 -30 19 -51 14 -75 -6 -32 -14 -37 -218 -140 l-212 -106
180 181 c99 100 188 181 197 181 11 0 26 -17 39 -41z m559 -128 c212 -71 382
-130 379 -130 -4 -1 -168 30 -365 69 -198 38 -387 75 -421 82 -76 14 -80 29
-20 75 23 18 42 33 42 33 0 0 173 -58 385 -129z m968 -108 c55 -126 97 -229
92 -231 -6 -2 -400 255 -420 275 -10 9 185 182 206 183 18 0 36 -34 122 -227z
m-1198 82 c129 -25 338 -66 464 -90 126 -24 233 -48 238 -53 8 -8 -526 -393
-566 -408 -10 -4 -27 13 -52 53 -204 321 -319 500 -327 508 -33 33 55 -109
304 -496 27 -41 49 -78 49 -82 0 -6 -165 -126 -184 -133 -6 -2 -17 0 -23 4
-18 11 -165 686 -157 718 3 13 9 24 13 24 3 0 112 -21 241 -45z m-316 23 c-9
-15 -161 -232 -235 -336 l-31 -42 -31 26 c-18 14 -56 43 -84 65 -32 24 -53 47
-53 59 0 15 37 38 158 99 86 44 182 93 212 110 60 33 75 38 64 19z m40 -15 c3
-10 21 -92 40 -183 20 -91 45 -205 56 -255 49 -223 57 -265 50 -270 -7 -4
-104 70 -352 268 l-88 70 44 61 c23 34 84 121 135 194 51 72 96 132 101 132 5
0 11 -8 14 -17z m-1524 -37 c-8 -8 -91 -67 -185 -132 -93 -64 -212 -146 -262
-181 -51 -36 -93 -61 -93 -58 0 19 183 355 193 356 7 0 68 6 137 13 69 8 147
14 175 15 42 1 47 -1 35 -13z m316 -32 c121 -25 260 -54 309 -64 265 -56 331
-70 338 -70 4 0 7 -6 7 -12 -1 -12 -493 -323 -511 -323 -5 0 -31 30 -57 66
-144 203 -305 419 -309 415 -4 -4 82 -126 303 -430 47 -66 49 -70 22 -84 -34
-17 -78 -44 -125 -76 -72 -48 -70 -52 -146 278 -43 188 -65 304 -61 320 3 14
7 26 9 26 1 0 101 -20 221 -46z m-441 -224 c-82 -132 -153 -239 -160 -237 -6
3 -64 22 -128 42 -73 23 -117 42 -117 51 0 11 73 64 470 340 41 29 77 51 79
49 2 -2 -63 -113 -144 -245z m190 223 c4 -16 8 -37 11 -48 2 -11 25 -108 50
-215 25 -107 47 -206 49 -220 2 -14 10 -44 16 -68 8 -30 9 -46 1 -54 -7 -7
-76 12 -229 62 -120 40 -219 74 -221 75 -2 2 190 317 289 473 18 29 27 28 34
-5z m-445 10 c0 -3 -32 -67 -72 -142 -39 -75 -79 -151 -87 -168 -8 -18 -22
-33 -31 -33 -9 0 -20 -4 -26 -10 -7 -7 -119 34 -334 121 -179 72 -336 135
-349 140 -13 5 -22 11 -20 13 2 2 45 7 94 11 50 3 248 21 440 39 422 40 385
37 385 29z m3233 -126 c99 -65 177 -121 174 -123 -2 -3 -103 31 -223 75 -246
89 -254 95 -188 149 21 17 42 28 48 25 6 -4 91 -60 189 -126z m-4231 28 c2
-18 -217 -375 -227 -372 -22 5 -324 232 -321 242 2 10 71 28 391 108 147 36
156 37 157 22z m457 -151 c175 -70 308 -129 313 -138 10 -18 0 -31 -130 -169
l-55 -59 -261 262 c-236 237 -257 260 -216 244 25 -10 182 -73 349 -140z
m-379 36 c17 -47 48 -132 69 -190 50 -136 146 -397 160 -432 6 -16 7 -28 3
-28 -8 0 -77 49 -363 260 -79 58 -147 108 -151 111 -5 3 41 89 103 190 61 101
114 188 116 192 10 17 33 -20 63 -103z m4130 16 c162 -59 256 -99 258 -108 2
-8 -36 -48 -85 -91 -48 -41 -106 -91 -128 -111 -22 -20 -43 -36 -47 -36 -3 0
-46 66 -93 148 -48 81 -105 175 -126 209 -33 53 -47 84 -36 83 1 0 117 -43
257 -94z m-3882 -178 l253 -250 -112 -119 c-61 -65 -117 -119 -124 -119 -7 0
-44 86 -85 198 -39 108 -101 274 -136 369 -64 170 -71 193 -56 179 4 -4 121
-120 260 -258z m3553 165 c-50 -164 -93 -312 -106 -363 -8 -30 -26 -93 -40
-140 -15 -47 -33 -110 -41 -140 -35 -128 -46 -160 -58 -160 -12 0 -316 470
-316 488 0 6 24 26 53 46 28 19 73 50 98 68 347 246 424 297 427 283 2 -8 -6
-45 -17 -82z m81 44 c14 -23 73 -121 131 -218 l104 -176 -264 -232 c-146 -128
-267 -231 -269 -228 -2 2 6 35 17 73 11 38 24 83 29 99 9 36 199 695 205 713
7 21 19 13 47 -31z m-1592 -25 c0 -10 -8 -45 -19 -78 -10 -32 -56 -188 -102
-346 -51 -176 -88 -288 -96 -288 -21 0 -308 394 -298 411 4 5 17 15 28 20 12
5 123 74 247 154 124 79 228 144 233 144 4 1 7 -7 7 -17z m136 -54 c50 -38 81
-68 78 -77 -2 -7 -13 -25 -25 -40 -11 -14 -97 -136 -190 -271 -163 -235 -201
-283 -179 -226 5 14 50 166 100 338 50 172 93 319 95 326 8 24 38 11 121 -50z
m-3128 9 c-2 -6 -88 -94 -193 -194 l-190 -183 -40 43 c-127 135 -294 330 -289
338 3 5 163 9 360 9 280 0 355 -3 352 -13z m32 -329 c0 -319 -7 -501 -20 -496
-4 2 -93 100 -198 218 l-192 215 193 187 c105 103 198 188 204 188 10 0 13
-70 13 -312z m200 196 c85 -64 157 -117 159 -119 2 -2 -11 -28 -30 -57 -18
-29 -91 -150 -162 -268 -71 -118 -136 -224 -143 -235 -12 -17 -14 41 -14 388
0 381 1 407 18 407 9 -1 87 -53 172 -116z m3227 -138 c121 -95 200 -163 197
-171 -3 -7 -53 -26 -112 -43 -458 -130 -724 -203 -728 -199 -3 3 88 138 202
301 184 265 208 295 223 283 9 -7 107 -84 218 -171z m1612 -96 c-23 -143 -45
-260 -49 -260 -8 0 -180 283 -180 296 0 16 264 246 268 234 2 -5 -15 -127 -39
-270z m-3472 159 l122 -40 -78 -127 c-43 -70 -93 -152 -111 -182 -41 -67 -39
-64 -45 -59 -2 3 -14 101 -25 219 -15 168 -17 216 -7 222 17 11 9 12 144 -33z
m-153 -149 c20 -216 21 -248 14 -256 -8 -7 -240 216 -236 227 8 22 192 209
199 202 4 -4 15 -82 23 -173z m521 27 c133 -45 214 -76 206 -81 -19 -12 -664
-226 -668 -222 -4 3 197 335 219 364 6 6 13 12 17 12 3 0 105 -33 226 -73z
m-1461 -5 c50 -38 164 -122 254 -187 89 -65 162 -124 162 -130 0 -6 -172 -48
-412 -100 -227 -48 -421 -90 -430 -93 -10 -2 -18 1 -18 7 0 6 70 127 156 268
186 308 183 303 191 303 4 0 48 -31 97 -68z m2046 -67 c52 -74 119 -166 148
-205 29 -38 50 -70 45 -70 -21 1 -488 259 -491 271 -1 9 33 35 88 68 50 29 93
57 96 62 3 5 8 9 12 9 4 -1 50 -61 102 -135z m1528 -136 c84 -133 152 -243
150 -245 -2 -2 -115 69 -251 157 -177 115 -247 166 -247 179 0 12 32 42 93 84
50 36 94 65 97 65 3 0 74 -108 158 -240z m768 167 c10 -19 48 -83 83 -143 56
-94 72 -135 58 -149 -2 -2 -149 -33 -328 -69 -178 -36 -332 -68 -343 -71 -10
-4 -17 -2 -15 4 4 10 510 460 520 461 3 1 14 -14 25 -33z m-3522 -135 c69 -69
107 -114 103 -123 -4 -12 -46 -16 -213 -22 -133 -4 -211 -3 -217 3 -7 7 20 43
79 106 49 53 97 108 107 121 10 13 22 24 26 24 3 0 55 -49 115 -109z m-1518
-111 c100 -113 180 -207 177 -210 -9 -10 -523 255 -523 270 0 21 132 151 149
148 8 -2 97 -95 197 -208z m2384 178 c0 -16 -170 -439 -181 -452 -8 -9 -509
220 -509 233 0 6 655 229 678 230 6 1 12 -5 12 -11z m310 -125 c193 -103 240
-132 240 -149 0 -26 -333 -337 -357 -332 -12 2 -22 25 -33 78 -53 235 -112
497 -116 513 -4 11 0 17 11 17 8 0 123 -57 255 -127z m-215 -176 c68 -299 71
-317 55 -317 -5 0 -79 33 -165 74 -148 71 -155 76 -146 98 27 69 173 423 177
430 3 5 8 8 10 5 2 -2 33 -133 69 -290z m-2540 11 c135 -66 245 -126 245 -133
0 -9 -226 -125 -245 -125 -3 0 -263 351 -279 379 -13 21 16 9 279 -121z m-164
-60 c73 -101 136 -188 141 -195 6 -8 -9 -19 -49 -38 -95 -44 -96 -43 -164 180
-65 213 -71 235 -65 235 2 0 64 -82 137 -182z m1849 117 c19 -22 -107 -443
-126 -423 -40 42 -314 403 -314 414 0 11 34 14 163 17 89 1 185 4 213 5 36 1
55 -3 64 -13z m-520 -9 c0 -7 -899 -606 -909 -606 -15 0 -14 22 9 209 24 193
34 213 115 230 28 6 212 47 410 90 396 87 375 83 375 77z m836 -113 c137 -64
251 -118 253 -119 4 -3 -4 -25 -161 -411 -61 -150 -114 -273 -118 -273 -4 0
-22 55 -39 123 -17 67 -67 259 -111 426 -91 346 -96 371 -82 371 5 0 122 -52
258 -117z m-628 -158 c78 -136 141 -254 138 -261 -7 -19 -26 -21 -551 -54
-679 -44 -692 -45 -679 -31 5 6 210 145 454 310 377 253 448 297 469 291 21
-5 54 -56 169 -255z m464 -192 c65 -246 116 -448 114 -451 -2 -2 -17 15 -32
36 -16 22 -98 128 -181 235 -84 107 -153 199 -153 204 -1 17 123 423 129 423
3 0 59 -201 123 -447z m-407 192 l137 -175 -12 -35 c-6 -19 -15 -35 -19 -35
-5 0 -57 84 -116 188 -59 103 -115 197 -123 210 -8 12 -12 22 -9 22 3 0 67
-79 142 -175z m-1161 57 c5 -8 -29 -320 -40 -371 -7 -32 -9 -29 -128 134 l-95
130 117 57 c121 58 137 64 146 50z m2164 -103 c91 -43 152 -78 155 -88 3 -12
-78 -87 -291 -269 -163 -138 -297 -250 -299 -248 -2 2 206 526 264 664 3 6 9
12 13 12 5 0 76 -32 158 -71z m-2336 -149 c54 -74 98 -136 98 -138 0 -11 -323
191 -328 205 -3 12 105 74 123 69 5 -1 53 -63 107 -136z m1638 -195 c73 -93
140 -179 149 -189 39 -47 -22 5 -160 136 -137 130 -147 142 -154 184 -7 51 1
73 20 52 7 -7 72 -89 145 -183z"/>
<path d="M2690 2726 l0 -76 50 0 c57 0 80 23 56 56 -10 14 -11 22 -2 36 19 30
-4 53 -58 56 l-46 3 0 -75z"/>
<path d="M2790 1215 c-7 -8 -9 -22 -6 -31 4 -11 -46 -72 -167 -204 -137 -150
-177 -189 -198 -189 -15 -1 -29 -8 -33 -16 -5 -13 -84 -15 -626 -15 -377 0
-620 4 -620 9 0 16 -40 23 -55 11 -8 -7 -15 -20 -15 -29 0 -26 -295 -233 -345
-242 -41 -8 -59 1 -413 213 -18 11 -31 23 -28 25 10 11 -15 43 -33 43 -24 0
-45 -25 -39 -48 4 -12 -30 -65 -98 -158 -57 -76 -104 -143 -104 -148 0 -12 -8
-22 114 142 58 78 110 142 115 142 5 0 13 -6 18 -12 14 -18 145 -309 141 -313
-2 -2 -87 -27 -188 -55 -102 -29 -189 -57 -195 -62 -7 -8 -5 -9 6 -5 85 29
383 106 389 100 3 -4 19 -37 35 -73 15 -36 47 -107 71 -159 24 -51 44 -97 44
-102 0 -5 4 -9 10 -9 5 0 -2 26 -16 58 -14 31 -34 77 -44 102 -10 25 -34 79
-54 120 l-36 75 127 36 c168 48 166 50 129 -108 -15 -65 -32 -136 -37 -158
-19 -76 -26 -125 -17 -125 4 0 8 3 8 6 0 8 79 363 85 384 11 35 41 41 97 18
29 -12 56 -24 61 -28 4 -3 -45 -89 -108 -190 -63 -101 -113 -185 -110 -188 6
-7 -7 -27 124 186 62 100 118 182 125 182 24 -2 250 -96 250 -105 1 -5 -98
-67 -219 -137 -121 -71 -213 -128 -205 -128 16 1 20 3 261 143 83 49 153 87
155 85 2 -2 -35 -55 -83 -117 -47 -63 -81 -112 -75 -110 5 2 49 55 97 117 47
61 90 112 94 112 9 0 21 -98 21 -176 0 -30 5 -54 10 -54 10 0 8 48 -6 183 -2
26 -1 47 3 47 4 -1 43 -52 87 -115 43 -63 82 -115 87 -115 5 0 -30 54 -77 120
-47 66 -83 124 -80 129 3 4 31 4 63 -1 32 -5 224 -33 427 -63 203 -30 373 -58
378 -63 5 -5 -20 -33 -61 -67 -39 -32 -69 -61 -66 -63 2 -2 34 21 71 52 37 30
69 54 71 52 2 -2 -1 -25 -8 -50 -6 -26 -9 -49 -6 -52 2 -3 10 18 17 46 7 28
19 54 27 57 9 4 37 -16 74 -53 32 -32 61 -55 64 -52 3 3 -21 32 -55 64 -33 31
-57 61 -53 65 5 4 102 12 217 19 170 10 210 10 216 -1 6 -8 -10 -33 -46 -73
-51 -56 -64 -77 -46 -75 4 0 31 29 61 65 29 35 57 64 62 64 5 0 9 -30 9 -67 0
-36 3 -63 6 -60 4 4 6 36 5 72 -1 36 2 65 6 65 4 0 30 -32 58 -70 27 -39 53
-70 58 -70 5 0 5 6 0 12 -38 48 -103 141 -100 144 1 2 144 -33 317 -77 173
-43 322 -78 330 -76 8 1 -135 40 -317 86 -183 46 -333 86 -333 90 0 5 180 109
448 259 l42 24 107 -218 c58 -120 106 -224 106 -231 0 -8 14 -13 36 -13 27 0
77 26 230 121 108 67 212 132 230 145 19 13 37 21 39 19 4 -3 -69 -127 -156
-262 -8 -13 -10 -23 -6 -23 5 1 47 63 94 140 48 78 92 139 100 140 10 0 31
-44 65 -140 27 -77 53 -140 57 -140 4 0 -9 44 -28 97 -60 164 -63 173 -60 173
2 0 45 -51 94 -112 123 -154 141 -174 142 -164 0 4 -54 75 -120 156 -65 81
-117 150 -114 152 2 3 113 -19 247 -47 133 -29 323 -69 422 -90 99 -20 185
-41 190 -47 7 -6 -12 -30 -55 -69 -36 -32 -60 -59 -55 -59 6 0 35 23 64 50 30
28 59 50 63 50 5 0 6 -24 3 -52 -4 -37 -2 -47 4 -33 5 11 10 32 10 47 2 47 31
52 87 15 74 -49 124 -77 136 -77 16 0 -30 33 -97 70 -33 18 -66 37 -72 43 -24
18 -12 42 40 83 164 127 418 317 421 313 2 -2 -39 -80 -90 -174 -122 -220
-176 -326 -171 -332 4 -4 34 48 129 227 110 206 152 280 160 280 12 0 22 -26
112 -274 69 -188 95 -253 96 -234 0 6 -99 282 -151 420 -16 43 -29 82 -29 88
0 5 17 -2 38 -17 73 -54 497 -376 510 -388 11 -10 10 -20 -8 -55 -12 -23 -19
-44 -16 -47 2 -3 14 13 26 36 11 23 23 41 26 41 3 0 29 -18 56 -40 28 -22 55
-40 60 -40 16 0 2 14 -56 55 -31 22 -55 42 -55 45 0 16 156 305 163 305 9 0
21 -35 30 -85 6 -35 15 -79 28 -125 17 -65 18 -68 24 -63 3 3 -9 63 -26 133
-20 86 -28 139 -24 165 5 31 3 40 -13 49 -15 7 -25 7 -39 -3 -16 -11 -73 -6
-363 30 -246 31 -349 48 -361 59 -27 24 -50 18 -65 -18 -19 -45 -454 -377
-494 -377 -15 0 -32 -5 -38 -11 -10 -10 -67 1 -628 120 -224 48 -226 48 -242
71 -11 15 -22 20 -37 16 -17 -4 -62 27 -204 140 -114 91 -182 153 -182 164 0
23 -18 36 -55 42 -19 3 -138 84 -328 222 -236 174 -301 225 -312 252 -15 37
-43 45 -65 19z m374 -284 c208 -151 306 -229 306 -242 0 -13 -43 -42 -152
-104 -83 -47 -152 -84 -153 -83 0 2 -73 148 -160 325 -87 178 -161 321 -163
318 -5 -5 285 -604 299 -619 5 -6 9 -16 9 -22 0 -13 -467 -284 -488 -284 -17
0 -17 0 42 316 29 159 66 358 82 443 26 141 42 187 65 179 4 -2 145 -104 313
-227z m-383 87 c-11 -62 -41 -223 -66 -358 -26 -135 -54 -287 -63 -337 -9 -51
-19 -93 -22 -93 -9 0 -163 416 -159 428 9 24 324 488 327 481 2 -4 -6 -59 -17
-121z m-173 -132 c-79 -118 -147 -211 -151 -206 -9 8 -10 30 -5 81 2 17 51 78
147 182 79 86 145 157 147 157 2 0 -60 -96 -138 -214z m-221 -152 c3 -9 -44
-119 -118 -272 -104 -213 -129 -257 -150 -264 -23 -8 -84 25 -495 260 -257
148 -470 274 -472 280 -3 9 151 12 612 12 554 0 617 -2 623 -16z m-1890 -136
c101 -60 183 -113 183 -118 0 -5 -8 -11 -17 -14 -138 -40 -233 -66 -240 -66
-8 0 -119 234 -149 314 -9 23 -18 28 223 -116z m1032 -99 c527 -303 561 -323
558 -325 -1 -1 -42 4 -92 12 -49 8 -239 36 -421 63 -306 45 -332 50 -358 74
-24 22 -31 44 -61 202 -40 201 -39 195 -24 195 7 0 185 -100 398 -221z m911
187 c11 -33 9 -37 -106 -206 -64 -94 -114 -174 -111 -177 3 -2 56 70 117 162
62 92 115 163 119 159 4 -5 40 -95 80 -201 56 -151 70 -196 62 -211 -9 -17
-27 -20 -138 -26 -70 -3 -165 -9 -210 -13 -101 -7 -110 3 -64 71 32 46 38 62
21 51 -12 -7 36 98 129 283 39 78 75 142 80 142 5 0 15 -15 21 -34z m-1382 2
c-8 -13 -39 -61 -68 -108 -29 -47 -64 -102 -76 -122 l-24 -37 -57 21 c-94 35
-95 39 -22 92 35 25 105 74 154 110 97 70 116 79 93 44z m85 -165 c23 -116 33
-191 27 -197 -12 -12 -262 83 -258 99 6 24 174 285 183 285 6 0 27 -84 48
-187z m2351 111 c-5 -59 -89 -580 -95 -588 -8 -8 -219 415 -219 438 0 6 21 22
47 36 27 14 93 51 148 83 55 31 104 55 110 53 5 -2 9 -12 9 -22z m249 -143
c92 -73 167 -139 167 -147 0 -14 -77 -66 -325 -222 -155 -96 -165 -101 -165
-75 0 55 92 598 103 605 6 4 21 -1 32 -11 11 -10 95 -77 188 -150z m2081 9
c316 -39 335 -44 336 -78 0 -13 -134 -278 -149 -295 -6 -6 -495 355 -546 404
-20 19 -20 19 10 14 17 -3 174 -23 349 -45z"/>
</g>
</svg>
